<svg id="Layer_1" enable-background="new 0 0 512 512" height="512" viewBox="0 0 512 512" width="512" xmlns="http://www.w3.org/2000/svg"><g><g><path d="m363.58 50.01v411.98c0 27.58-22.45 50.01-50.03 50.01h-215.1c-27.58 0-50.03-22.43-50.03-50.01v-411.98c0-27.58 22.45-50.01 50.03-50.01h215.1c27.58 0 50.03 22.43 50.03 50.01z" fill="#56788b"/><path d="m363.58 50.01v411.98c0 27.58-22.45 50.01-50.03 50.01h-215.1c-27.58 0-50.03-22.43-50.03-50.01v-27.8c0 27.57 22.45 50 50.03 50h185.08c27.59 0 50.03-22.43 50.03-50v-384.18c0-27.58-22.44-50.01-50.03-50.01h30.02c27.58 0 50.03 22.43 50.03 50.01z" fill="#415e6f"/><path d="m333.56 49.52v412.96c0 11.59-9.43 21.02-21.02 21.02h-213.08c-11.59 0-21.02-9.43-21.02-21.02v-412.96c0-11.59 9.43-21.02 21.02-21.02h36c4.14 0 7.5 3.36 7.5 7.5 0 5.98 4.87 10.85 10.86 10.85h104.36c5.99 0 10.86-4.87 10.86-10.85 0-4.14 3.36-7.5 7.5-7.5h36c11.59 0 21.02 9.43 21.02 21.02z" fill="#fdeda5"/><g><path d="m333.56 49.52v412.96c0 11.609-9.411 21.02-21.02 21.02h-213.08c-11.609 0-21.02-9.411-21.02-21.02v-30c0 11.59 9.43 21.02 21.02 21.02h147.29c13.57 0 19.77-16.93 9.41-25.69l-26.749-22.631c-3.113-2.634-7.058-4.079-11.135-4.079h-43.866c-30.922 0-55.99-25.068-55.99-55.99v-221.77c0-30.922 25.068-55.99 55.99-55.99h111.32c9.847 0 17.83-7.983 17.83-17.83 0-11.59-9.43-21.02-21.02-21.02h30c11.609 0 21.02 9.411 21.02 21.02z" fill="#fbdf63"/></g><path d="m248.175 438.5h-84.35c-4.142 0-7.5 3.358-7.5 7.5s3.358 7.5 7.5 7.5h84.35c4.142 0 7.5-3.358 7.5-7.5s-3.358-7.5-7.5-7.5z" fill="#56788b"/><path d="m463.58 123.34v221.77c0 14.33-11.66 25.99-25.99 25.99h-61.23l-65.5 55.81c-1.4 1.19-3.13 1.79-4.86 1.79s-3.46-.6-4.86-1.79l-65.5-55.81h-61.23c-14.33 0-25.99-11.66-25.99-25.99v-221.77c0-14.33 11.66-25.99 25.99-25.99h263.18c14.33 0 25.99 11.66 25.99 25.99z" fill="#ed2061"/><path d="m463.58 123.34v221.77c0 14.33-11.66 25.99-25.99 25.99h-30c14.33 0 25.99-11.66 25.99-25.99v-221.77c0-14.33-11.66-25.99-25.99-25.99h30c14.33 0 25.99 11.66 25.99 25.99z" fill="#c71e54"/></g><g fill="#fff"><path d="m406.349 190.826c-3.706-1.852-8.21-.35-10.063 3.355l-12.946 25.902-12.946-25.902c-1.854-3.704-6.356-5.209-10.063-3.355-3.705 1.853-5.207 6.357-3.355 10.063l18.864 37.741v37.553c0 4.143 3.357 7.5 7.5 7.5s7.5-3.357 7.5-7.5v-37.553l18.864-37.741c1.852-3.706.35-8.21-3.355-10.063z"/><path d="m328.272 190.035c-4.143 0-7.5 3.357-7.5 7.5v71.147h-25.622v-71.147c0-4.143-3.357-7.5-7.5-7.5s-7.5 3.357-7.5 7.5v78.647c0 4.143 3.357 7.5 7.5 7.5h40.622c4.143 0 7.5-3.357 7.5-7.5v-78.647c0-4.143-3.358-7.5-7.5-7.5z"/><path d="m236.606 190.035h-27.603c-4.143 0-7.5 3.357-7.5 7.5v78.647c0 4.143 3.357 7.5 7.5 7.5h27.603c11.315 0 20.52-9.205 20.52-20.52v-13.284c0-4.939-1.754-9.476-4.671-13.021 2.917-3.545 4.671-8.081 4.671-13.02v-13.284c0-11.313-9.205-20.518-20.52-20.518zm-20.103 15h20.103c3.044 0 5.521 2.476 5.521 5.52v13.284c0 3.044-2.477 5.52-5.521 5.52h-20.103zm25.623 58.128c0 3.044-2.477 5.52-5.521 5.52h-20.103v-24.324h20.103c3.044 0 5.521 2.477 5.521 5.521z"/></g></g></svg>