<svg id="Layer_1" enable-background="new 0 0 512 512" height="512" viewBox="0 0 512 512" width="512" xmlns="http://www.w3.org/2000/svg"><g><path d="m270.197 398.308c-4.681.277-9.443.417-14.157.417-62.475 0-114.246-24.176-153.973-53.352 1.501-11.26 1.093-22.696.745-32.432-.142-3.965-.275-7.71-.275-11.067 0-4.142-3.358-7.5-7.5-7.5s-7.5 3.358-7.5 7.5c0 3.625.139 7.5.285 11.603.237 6.632.494 13.832.169 20.967-12.54-10.275-23.658-20.859-33.302-30.989-2.856-3-7.603-3.116-10.604-.261-3 2.856-3.117 7.604-.261 10.604 11.831 12.427 25.79 25.505 41.799 37.955-1.748 6.732-4.626 12.846-9.278 17.667-7.125 7.385-17.858 11.42-32.695 12.268-3.141-8.653-11.438-14.85-21.154-14.85-12.404-.001-22.496 10.102-22.496 22.519s10.092 22.52 22.498 22.52c9.84 0 18.224-6.356 21.271-15.182 18.961-1.003 33.532-6.662 43.372-16.86 5.253-5.444 8.829-11.814 11.243-18.621 41.128 29.036 94.051 52.511 157.657 52.511 5.007 0 10.069-.149 15.043-.444 4.135-.245 7.288-3.795 7.043-7.93s-3.79-7.29-7.93-7.043zm-247.699-1.431c-4.134 0-7.498-3.373-7.498-7.52s3.363-7.52 7.498-7.52 7.498 3.374 7.498 7.52-3.364 7.52-7.498 7.52z"/><path d="m21.577 288.354c1.482 1.848 3.659 2.81 5.857 2.81 1.646 0 3.302-.54 4.686-1.648 3.232-2.591 3.752-7.311 1.161-10.543-8.13-10.142-13.79-18.31-16.786-22.834 6.919-10.425 28.063-40.267 61.441-69.741 17.969-15.867 36.811-29.312 56.228-40.141-.096 4.202-.169 8.262-.169 12.246 0 4.142 3.358 7.5 7.5 7.5s7.5-3.358 7.5-7.5c0-5.428.142-11.104.291-17.111.025-1.002.05-2.008.075-3.018 1.544-.742 3.091-1.468 4.641-2.176 32.879-15.034 67.209-22.656 102.038-22.656 63.185 0 115.296 25.141 153.889 53.372-1.498 11.253-1.09 22.681-.742 32.412.142 3.965.275 7.71.275 11.067 0 4.142 3.358 7.5 7.5 7.5s7.5-3.358 7.5-7.5c0-3.625-.139-7.5-.285-11.603-.237-6.638-.495-13.845-.168-20.987 6.897 5.63 13.261 11.271 19.073 16.756 3.012 2.844 7.759 2.705 10.602-.306 2.843-3.012 2.706-7.759-.306-10.602-8.01-7.56-17.025-15.403-27.003-23.132 1.748-6.733 4.626-12.849 9.279-17.671 7.125-7.385 17.858-11.42 32.695-12.268 3.141 8.653 11.438 14.85 21.154 14.85 12.405 0 22.498-10.103 22.498-22.52s-10.092-22.52-22.498-22.52c-9.84 0-18.224 6.356-21.271 15.182-18.961 1.003-33.532 6.662-43.372 16.86-5.262 5.453-8.841 11.835-11.255 18.655-40.091-28.194-93.318-52.546-157.564-52.546-36.346 0-72.141 7.798-106.433 23.18-.016-26.609-2.754-53.479-19.423-70.569-10.777-11.05-26.331-16.652-46.232-16.652h-76.372c-4.142 0-7.5 3.358-7.5 7.5s3.358 7.5 7.5 7.5h76.372c15.926 0 27.536 3.966 35.494 12.125 14.196 14.554 15.486 41.41 15.102 67.386-23.216 12.075-45.666 27.66-66.901 46.46-42.75 37.847-65.539 75.213-66.488 76.786-1.439 2.384-1.439 5.369 0 7.753.288.474 7.185 11.837 20.417 28.344zm467.925-172.966c4.134 0 7.498 3.373 7.498 7.52s-3.363 7.52-7.498 7.52-7.498-3.374-7.498-7.52 3.364-7.52 7.498-7.52z"/><path d="m478.136 209.232c-2.743-3.102-7.483-3.393-10.587-.647-3.102 2.745-3.392 7.484-.647 10.587 14.667 16.579 24.403 30.498 28.687 36.961-5.878 8.874-22.049 31.808-47.392 56.654-17.311 16.972-41.041 36.817-70.283 53.141.099-4.268.173-8.389.173-12.43 0-4.142-3.358-7.5-7.5-7.5s-7.5 3.358-7.5 7.5c0 5.428-.142 11.104-.291 17.112-.027 1.068-.053 2.14-.079 3.216-17.081 8.226-35.781 15.063-55.952 19.45-4.047.88-6.615 4.875-5.735 8.922.763 3.511 3.87 5.908 7.321 5.908.528 0 1.064-.056 1.601-.173 18.77-4.082 36.311-10.153 52.523-17.45.03 26.542 2.796 53.32 19.422 70.366 10.777 11.049 26.332 16.651 46.232 16.651h75.913c4.142 0 7.5-3.358 7.5-7.5s-3.358-7.5-7.5-7.5h-75.913c-15.926 0-27.536-3.966-35.494-12.125-14.162-14.519-15.48-41.282-15.105-67.2 34.178-17.809 61.607-40.498 81.169-59.676 33.655-32.996 51.481-62.261 52.223-63.49 1.439-2.384 1.439-5.369 0-7.753-.464-.767-11.587-19.061-32.786-43.024z"/><path d="m178.882 183.284c-3.214-2.613-7.938-2.127-10.551 1.086-16.423 20.193-25.467 45.679-25.467 71.762 0 62.728 50.996 113.76 113.677 113.76s113.677-51.033 113.677-113.76-50.996-113.76-113.677-113.76c-21.824 0-43.026 6.208-61.314 17.951-3.486 2.238-4.497 6.878-2.259 10.363 2.239 3.486 6.878 4.497 10.363 2.259 15.866-10.188 34.265-15.573 53.209-15.573 54.411 0 98.677 44.304 98.677 98.76s-44.267 98.76-98.677 98.76-98.677-44.304-98.677-98.76c0-22.646 7.85-44.771 22.105-62.297 2.614-3.214 2.127-7.938-1.086-10.551z"/><path d="m212.964 256.132c0 24.044 19.548 43.605 43.577 43.605s43.577-19.561 43.577-43.605c0-24.043-19.548-43.604-43.577-43.604s-43.577 19.561-43.577 43.604zm43.577-28.604c15.757 0 28.577 12.832 28.577 28.604 0 15.773-12.819 28.605-28.577 28.605s-28.577-12.832-28.577-28.605c0-15.772 12.819-28.604 28.577-28.604z"/><path d="m194.288 283.151-6.954 4.018c-3.586 2.072-4.814 6.66-2.742 10.246 1.39 2.405 3.91 3.75 6.501 3.75 1.273 0 2.564-.325 3.745-1.007l6.954-4.018c3.586-2.072 4.814-6.66 2.742-10.246-2.073-3.587-6.661-4.815-10.246-2.743z"/><path d="m317.243 212.107-6.954 4.018c-3.586 2.072-4.814 6.66-2.742 10.246 1.39 2.405 3.91 3.75 6.501 3.75 1.273 0 2.564-.325 3.745-1.007l6.954-4.018c3.586-2.072 4.814-6.66 2.742-10.246s-6.66-4.814-10.246-2.743z"/><path d="m296.024 310.431c-2.07-3.588-6.658-4.819-10.245-2.749-3.588 2.07-4.818 6.657-2.749 10.245l4.015 6.959c1.389 2.407 3.911 3.753 6.503 3.753 1.271 0 2.561-.324 3.741-1.005 3.588-2.07 4.818-6.657 2.749-10.245z"/><path d="m225.036 187.379c-2.071-3.588-6.657-4.82-10.245-2.749-3.588 2.07-4.818 6.657-2.749 10.245l4.015 6.959c1.389 2.407 3.911 3.753 6.503 3.753 1.271 0 2.561-.324 3.741-1.005 3.588-2.07 4.818-6.657 2.749-10.245z"/><path d="m310.29 296.14 6.954 4.018c1.182.683 2.472 1.007 3.745 1.007 2.591 0 5.111-1.345 6.501-3.75 2.072-3.586.844-8.174-2.742-10.246l-6.954-4.018c-3.586-2.072-8.173-.845-10.246 2.742s-.845 8.174 2.742 10.247z"/><path d="m201.792 216.125-6.954-4.018c-3.586-2.071-8.173-.845-10.246 2.742-2.072 3.586-.844 8.174 2.742 10.246l6.954 4.018c1.182.683 2.472 1.007 3.745 1.007 2.591 0 5.111-1.345 6.501-3.75 2.072-3.585.844-8.173-2.742-10.245z"/><path d="m214.791 327.634c1.181.681 2.469 1.005 3.741 1.005 2.592 0 5.115-1.347 6.503-3.753l4.015-6.959c2.07-3.588.839-8.175-2.749-10.245-3.589-2.069-8.175-.839-10.245 2.749l-4.015 6.959c-2.068 3.588-.838 8.174 2.75 10.244z"/><path d="m289.521 205.587c2.592 0 5.115-1.347 6.503-3.753l4.015-6.959c2.07-3.588.839-8.175-2.749-10.245-3.589-2.07-8.175-.839-10.245 2.749l-4.015 6.959c-2.07 3.588-.839 8.175 2.749 10.245 1.181.681 2.47 1.004 3.742 1.004z"/><path d="m173.538 256.132c0 4.142 3.358 7.5 7.5 7.5h8.029c4.142 0 7.5-3.358 7.5-7.5s-3.358-7.5-7.5-7.5h-8.029c-4.142 0-7.5 3.358-7.5 7.5z"/><path d="m315.514 256.132c0 4.142 3.358 7.5 7.5 7.5h8.029c4.142 0 7.5-3.358 7.5-7.5s-3.358-7.5-7.5-7.5h-8.029c-4.142 0-7.5 3.358-7.5 7.5z"/><path d="m248.541 323.159v8.035c0 4.142 3.358 7.5 7.5 7.5s7.5-3.358 7.5-7.5v-8.035c0-4.142-3.358-7.5-7.5-7.5s-7.5 3.358-7.5 7.5z"/><path d="m263.541 189.106v-8.036c0-4.142-3.358-7.5-7.5-7.5s-7.5 3.358-7.5 7.5v8.036c0 4.142 3.358 7.5 7.5 7.5s7.5-3.357 7.5-7.5z"/><path d="m504.041 425.792h-59.071c-4.142 0-7.5 3.358-7.5 7.5s3.358 7.5 7.5 7.5h59.071c4.142 0 7.5-3.358 7.5-7.5s-3.358-7.5-7.5-7.5z"/><path d="m7.581 86.208h74.069c4.142 0 7.5-3.358 7.5-7.5s-3.358-7.5-7.5-7.5h-74.069c-4.142 0-7.5 3.358-7.5 7.5s3.358 7.5 7.5 7.5z"/><ellipse cx="256.54" cy="256.132" rx="7.5" ry="7.501" transform="matrix(.009 -1 1 .009 -2.001 510.245)"/></g></svg>