<svg id="Capa_1" enable-background="new 0 0 512 512" height="512" viewBox="0 0 512 512" width="512" xmlns="http://www.w3.org/2000/svg"><g><g><g><path d="m493.098 268.514-36.262-37.895c-4.442-4.642-7.702-10.284-9.505-16.451l-24.033-82.189c-6.467-22.107-26.741-37.3-49.775-37.3h-235.649c-23.187 0-43.556 15.391-49.889 37.696l-23.173 81.614c-1.783 6.28-5.075 12.03-9.588 16.747l-36.137 37.776c-5.713 5.971-8.902 13.916-8.902 22.18v86.753c0 17.718 14.363 22.084 32.081 22.084h427.654c17.718 0 32.081-14.363 32.081-32.081v-76.757c-.001-8.261-3.19-16.206-8.903-22.177z" fill="#ffce62"/></g><g><path d="m501.997 290.696v76.751c0 17.723-14.365 32.088-32.078 32.088h-427.649c-17.723 0-32.088-4.368-32.088-22.092v-86.747c0-8.267 3.189-16.214 8.907-22.182l36.136-37.776c4.508-4.718 7.807-10.466 9.586-16.744l23.171-81.619c6.337-22.302 26.7-37.696 49.891-37.696h235.652c23.031 0 43.304 15.194 49.771 37.296l24.031 82.189c1.809 6.168 5.068 11.816 9.506 16.454l36.266 37.896c5.709 5.968 8.898 13.915 8.898 22.182z" fill="#ffce62"/></g><g><g><circle cx="108.92" cy="312.663" fill="#f9f5f3" r="34.426"/></g><g><circle cx="403.265" cy="312.663" fill="#f9f5f3" r="34.426"/></g></g><g><path d="m312.998 94.681h-113.811l8.884-43.531c1.295-6.347 6.879-10.906 13.357-10.906h69.33c6.478 0 12.061 4.559 13.357 10.906z" fill="#e0e7ef"/></g><g><path d="m501.997 347.085v20.362c0 17.723-14.365 32.088-32.078 32.088h-427.649c-17.723 0-32.088-4.368-32.088-22.092v-30.359h491.815z" fill="#ffe4b2"/></g><g><g><path d="m128.869 471.757h-50.237c-10.851 0-19.647-8.796-19.647-19.647v-52.578h89.53v52.578c0 10.851-8.796 19.647-19.646 19.647z" fill="#868eaf"/></g><g><path d="m433.552 471.757h-50.237c-10.851 0-19.647-8.796-19.647-19.647v-52.578h89.53v52.578c.001 10.851-8.795 19.647-19.646 19.647z" fill="#868eaf"/></g></g><g><path d="m455.403 147.163c9.631-4.766 20.232-7.246 30.977-7.246 8.626 0 15.619 6.993 15.619 15.619v32.404c0 8.626-6.993 15.619-15.619 15.619h-42.152l-5.424-18.571c-4.371-14.965 2.626-30.91 16.599-37.825z" fill="#ffce62"/></g><g><path d="m56.597 147.163c-9.631-4.766-20.232-7.246-30.977-7.246-8.626 0-15.619 6.993-15.619 15.619v32.404c0 8.626 6.993 15.619 15.619 15.619h42.152l5.289-18.621c4.371-14.965-2.491-30.86-16.464-37.775z" fill="#ffce62"/></g><g><path d="m438.089 182.539-14.791-50.559c-6.467-22.107-26.741-37.3-49.775-37.3h-235.649c-23.187 0-43.556 15.391-49.889 37.696l-14.312 50.408c-5.136 18.089 6.297 36.072 23.719 39.98l-.008.004s87.031 10.889 164.238 10.889c69.174 0 139.12-7.313 152.929-10.917 17.694-4.033 28.631-22.791 23.538-40.201z" fill="#f9f5f3"/></g><g><path d="m291.25 301.543h-68.316c-5.522 0-10 4.478-10 10s4.478 10 10 10h68.316c5.522 0 10-4.478 10-10s-4.478-10-10-10z"/><path d="m512 187.94v-32.404c0-14.126-11.493-25.619-25.619-25.619-12.218 0-24.464 2.864-35.413 8.284v-.001c-4.907 2.429-9.149 5.705-12.632 9.57l-5.441-18.597c-7.664-26.196-32.079-44.492-59.373-44.492h-52.359l-7.251-35.531c-2.236-10.955-11.975-18.906-23.155-18.906h-69.33c-11.182 0-20.92 7.952-23.154 18.906l-7.251 35.531h-53.147c-27.521 0-51.993 18.49-59.51 44.965l-5.047 17.776c-3.411-3.717-7.534-6.87-12.285-9.221-10.949-5.42-23.195-8.284-35.413-8.284-14.127 0-25.62 11.493-25.62 25.619v32.404c0 14.126 11.493 25.619 25.619 25.619h28.804c-1.425 3.809-3.612 7.325-6.425 10.267l-36.136 37.774c-7.53 7.869-11.678 18.201-11.678 29.094v56.333c0 .02-.003.038-.003.058v30.358c0 15.003 7.856 22.627 14.448 26.382 6.839 3.896 15.622 5.71 27.64 5.71h6.716v42.575c0 16.347 13.3 29.646 29.646 29.646h50.236c16.348 0 29.647-13.3 29.647-29.646v-42.575h195.153v42.575c0 16.347 13.3 29.646 29.646 29.646h50.237c16.347 0 29.646-13.3 29.646-29.646v-42.575h6.72c22.907 0 42.081-19.193 42.081-42.084v-76.757c0-10.891-4.146-21.224-11.677-29.093l-36.263-37.896c-2.783-2.908-4.957-6.383-6.384-10.146h28.704c14.13.001 25.623-11.493 25.623-25.619zm-52.161-31.814c8.207-4.062 17.385-6.209 26.542-6.209 3.099 0 5.619 2.521 5.619 5.619v32.404c0 3.099-2.521 5.619-5.619 5.619h-34.655l-3.323-11.374c-3.016-10.328 1.793-21.288 11.436-26.059zm-241.971-102.978c.344-1.684 1.84-2.905 3.559-2.905h69.33c1.719 0 3.216 1.223 3.56 2.906l6.435 31.531h-89.317zm-197.868 134.792v-32.404c0-3.099 2.521-5.619 5.619-5.619 9.157 0 18.335 2.146 26.542 6.208v.001c9.561 4.732 14.313 15.659 11.285 26.061l-3.23 11.372h-34.597c-3.098.001-5.619-2.52-5.619-5.619zm64.493 124.723c0-13.469 10.958-24.427 24.427-24.427s24.426 10.958 24.426 24.427c0 13.417-10.874 24.338-24.272 24.422h-.308c-13.398-.084-24.273-11.005-24.273-24.422zm407.504 44.422v10.362c0 12.006-10.058 22.085-22.078 22.085h-427.654c-22.08 0-22.08-7.272-22.08-12.085v-20.362zm-113.158-44.422c0-13.469 10.957-24.427 24.426-24.427s24.427 10.958 24.427 24.427c0 13.417-10.875 24.338-24.273 24.422h-.308c-13.398-.084-24.272-11.005-24.272-24.422zm-240.323 139.447c0 5.319-4.328 9.646-9.647 9.646h-50.237c-5.319 0-9.646-4.327-9.646-9.646v-42.575h69.53zm304.683 0c0 5.319-4.327 9.646-9.646 9.646h-50.237c-5.319 0-9.646-4.327-9.646-9.646v-42.575h69.53v42.575zm42.673-176.681c3.952 4.129 6.128 9.551 6.128 15.266v46.391h-51.65c4.634-7.013 7.341-15.406 7.341-24.422 0-24.497-19.93-44.427-44.427-44.427-24.496 0-44.426 19.93-44.426 44.427 0 9.016 2.707 17.409 7.341 24.422h-220.175c4.634-7.013 7.341-15.406 7.341-24.422 0-24.497-19.93-44.427-44.426-44.427-24.497 0-44.427 19.93-44.427 44.427 0 9.016 2.707 17.409 7.341 24.422h-51.65v-46.391c0-5.716 2.176-11.137 6.128-15.267l36.139-37.777c4.865-5.086 8.618-11.197 10.98-17.82 5.686 6.227 14.172 11.786 22.71 12.861.575.071 58.274 7.23 120.717 9.93.146.007.293.01.439.01 5.323 0 9.751-4.197 9.982-9.568.239-5.518-4.041-10.184-9.559-10.422-58.313-2.521-112.443-8.983-118.533-9.726-11.925-2.914-19.239-15.6-15.899-27.387l14.315-50.419c5.087-17.915 21.646-30.428 40.27-30.428h235.648c19.677 0 35.36 13.638 40.729 31.991l14.312 48.947c3.463 12.428-4.534 24.237-16.537 27.445-8.958 2.337-52.432 7.582-107.172 9.716-5.519.215-9.817 4.863-9.603 10.382.21 5.386 4.642 9.61 9.985 9.61.131 0 .264-.003.396-.008 50.281-1.959 98.006-6.9 111.29-10.309 8.351-1.935 15.958-6.472 21.657-12.874 2.36 6.673 6.135 12.836 11.029 17.951z"/></g></g><g><path d="m261.62 243.66c-8.99 0-13.406-11.551-6.601-17.508 6.846-5.993 17.887-.03 16.479 9.031-.745 4.802-5.005 8.477-9.878 8.477z"/></g></g></svg>